<svg width="56" height="56" viewBox="0 0 56 56" fill="none" xmlns="http://www.w3.org/2000/svg">
<g clip-path="url(#clip0_19_664)">
<path d="M28.3547 16.0907C26.1427 16.0907 22.7197 13.5753 19.1147 13.664C14.3547 13.727 9.99133 16.4243 7.539 20.6967C2.59933 29.2717 6.265 41.937 11.0833 48.9067C13.447 52.2993 16.2353 56.1167 19.9313 55.9977C23.478 55.846 24.808 53.6947 29.113 53.6947C33.3853 53.6947 34.5963 55.9977 38.353 55.9067C42.1727 55.846 44.597 52.4533 46.9303 49.028C49.6277 45.0893 50.7477 41.2697 50.8083 41.0597C50.7173 41.0293 43.3837 38.2107 43.295 29.7267C43.2343 22.6333 49.0816 19.2407 49.3547 19.089C46.0203 14.2123 40.901 13.6663 39.1113 13.545C34.4447 13.181 30.5363 16.0907 28.3547 16.0907ZM36.2367 8.93667C38.2037 6.57533 39.5033 3.27367 39.1417 0C36.3253 0.121333 32.9303 1.87833 30.9003 4.242C29.0803 6.33267 27.5077 9.69734 27.93 12.908C31.052 13.1507 34.265 11.3027 36.2343 8.939" fill="black"/>
</g>
<defs>
<clipPath id="clip0_19_664">
<rect width="56" height="56" fill="white"/>
</clipPath>
</defs>
</svg>
