<svg width="48" height="48" viewBox="0 0 48 48" fill="none" xmlns="http://www.w3.org/2000/svg">
<g clip-path="url(#clip0_19_667)">
<path d="M18.202 47.382V31.422H13.254V24.088H18.202V20.928C18.202 12.758 21.898 8.972 29.918 8.972C30.72 8.972 31.828 9.056 32.854 9.178C33.6225 9.25708 34.3849 9.38737 35.136 9.568V16.218C34.7017 16.1775 34.2661 16.1535 33.83 16.146C33.3414 16.1333 32.8527 16.1273 32.364 16.128C30.95 16.128 29.846 16.32 29.014 16.746C28.4547 17.0266 27.9845 17.4574 27.656 17.99C27.14 18.83 26.908 19.98 26.908 21.494V24.088H34.746L33.974 28.294L33.4 31.422H26.908V47.912C38.792 46.476 48 36.358 48 24.088C48 10.834 37.254 0.0879974 24 0.0879974C10.746 0.0879974 0 10.834 0 24.088C0 35.344 7.748 44.788 18.202 47.382Z" fill="#0866FF"/>
</g>
<defs>
<clipPath id="clip0_19_667">
<rect width="48" height="48" fill="white"/>
</clipPath>
</defs>
</svg>
