<svg width="48" height="48" viewBox="0 0 48 48" fill="none" xmlns="http://www.w3.org/2000/svg">
<g clip-path="url(#clip0_19_644)">
<path d="M47.04 24.552C47.04 22.584 46.8 21.144 46.44 19.632H24V28.56H37.2C36.84 30.864 35.424 34.104 32.304 36.288V42.168H39.888C44.424 38.016 47.04 31.848 47.04 24.552Z" fill="#4285F4"/>
<path d="M32.304 36.312C30.312 37.728 27.6 38.712 24 38.712C17.664 38.712 12.288 34.536 10.368 28.752H2.568V34.8C6.528 42.6 14.616 48 24 48C30.48 48 35.904 45.864 39.888 42.192L32.304 36.312Z" fill="#34A853"/>
<path d="M9.576 24C9.576 22.344 9.864 20.76 10.344 19.272V13.224H2.568C0.881111 16.5658 0.00155567 20.2566 0 24C0 27.864 0.936 31.536 2.568 34.776L10.344 28.728C9.864 27.24 9.576 25.656 9.576 24Z" fill="#FBBC05"/>
<path d="M24 9.312C28.512 9.312 31.512 11.256 33.24 12.864L40.056 6.24C35.904 2.376 30.48 0 24 0C14.616 0 6.528 5.4 2.568 13.224L10.344 19.272C12.288 13.488 17.664 9.312 24 9.312Z" fill="#EA4335"/>
</g>
<defs>
<clipPath id="clip0_19_644">
<rect width="48" height="48" fill="white"/>
</clipPath>
</defs>
</svg>
